<svg version="1.1" id="Vlt-icon-lock" xmlns="http://www.w3.org/2000/svg" xmlns:xlink="http://www.w3.org/1999/xlink" x="0px" y="0px" viewBox="0 0 24 24" style="enable-background:new 0 0 24 24;" xml:space="preserve"><path style="fill:white" d="M18.5,8.6c1.1,0,2,0.9,2,2v10.1c0,1.1-0.9,2-2,2h-13c-1.1,0-2-0.9-2-2V10.6c0-1.1,0.9-2,2-2h1.4V6.1C6.9,3.3,9.2,1,12,1&#xA;&#x9;c2.8,0,5.1,2.3,5.1,5.1v2.6H18.5z M19.2,20.7V10.6c0-0.4-0.3-0.7-0.7-0.7h-13c-0.4,0-0.7,0.3-0.7,0.7v10.1c0,0.4,0.3,0.7,0.7,0.7h13&#xA;&#x9;C18.9,21.4,19.2,21.1,19.2,20.7z M8.3,6.1v2.6h7.4V6.1c0-2.1-1.7-3.7-3.7-3.7C9.9,2.4,8.3,4,8.3,6.1z M12,11.4&#xA;&#x9;c1.6,0,2.9,1.3,2.9,2.9c0,1-0.5,1.9-1.3,2.4l0,0.5l0,0.6l0,0.6l0,1.1h-3.4v-2.8c-0.8-0.6-1.3-1.4-1.3-2.4&#xA;&#x9;C9.1,12.7,10.4,11.4,12,11.4z M12.9,15.7c0.8-0.5,1-1.6,0.4-2.3c-0.3-0.5-0.8-0.7-1.4-0.7c-0.9,0-1.7,0.8-1.7,1.7&#xA;&#x9;c0,0.5,0.3,1,0.8,1.4l0.5,0.4v2.2h0.8l0-0.4l0-0.6l0-0.5v-0.7C12.4,16.1,12.9,15.7,12.9,15.7z"/></svg>
