<svg version="1.1" id="Vlt-icon-file-search" xmlns="http://www.w3.org/2000/svg" xmlns:xlink="http://www.w3.org/1999/xlink" x="0px" y="0px" viewBox="0 0 24 24" style="enable-background:new 0 0 24 24;" xml:space="preserve"><path style="fill:white" d="M3.1,22.1c0,0.2,0.2,0.4,0.4,0.4h10.8v1.1H3.6C2.7,23.7,2,23,2,22.1V2.6C2,1.7,2.7,1,3.6,1h11l6.2,6.2v6.6h-1.1V8h-5.9V2.1&#xA;&#x9;H3.6c-0.2,0-0.4,0.2-0.4,0.4L3.1,22.1L3.1,22.1z M14.9,3v3.9h3.9C18.8,6.9,14.9,3,14.9,3z M5.5,8.8V7.7h5.9v1.1H5.5z M5.5,11.7v-1.1&#xA;&#x9;h11.8v1.1L5.5,11.7L5.5,11.7z M5.5,14.6v-1.1h6.9v1.1L5.5,14.6L5.5,14.6z M5.5,17.5v-1.1h6.9v1.1L5.5,17.5L5.5,17.5z M22.6,21.8&#xA;&#x9;c0.3,0.2,0.3,0.7,0,1l-0.3,0.3c-0.3,0.3-0.7,0.3-1,0l-2.5-2.4c-0.5,0.3-1.1,0.5-1.7,0.5c-1.9,0-3.4-1.5-3.4-3.3&#xA;&#x9;c0-1.9,1.5-3.3,3.4-3.3c1.9,0,3.4,1.5,3.4,3.3c0,0.6-0.2,1.1-0.5,1.6L22.6,21.8L22.6,21.8z M15,17.8c0,1.1,0.9,2.1,2.2,2.1&#xA;&#x9;c1.2,0,2.2-1,2.2-2.1c0-1.1-1-2.1-2.2-2.1C16,15.7,15,16.7,15,17.8z"/></svg>
