<svg version="1.1" id="Vlt-icon-phone" xmlns="http://www.w3.org/2000/svg" xmlns:xlink="http://www.w3.org/1999/xlink" x="0px" y="0px" viewBox="0 0 24 24" style="enable-background:new 0 0 24 24;" xml:space="preserve"><path style="fill:white" d="M2.8,4.5C2.5,5.2,2.5,6,2.7,7c0.2,1,0.6,2,1.2,3.1c0.6,1.1,1.2,2.2,2,3.2c0.8,1,1.5,1.9,2.2,2.6c0.7,0.7,1.6,1.5,2.6,2.2&#xA;&#x9;c1,0.7,2.1,1.4,3.2,2c1.1,0.6,2.1,1,3.1,1.2c1,0.2,1.8,0.2,2.5-0.1c0.8-0.4,1.3-0.9,1.6-1.6l0.4-1c0.1-0.2,0-0.4,0-0.6&#xA;&#x9;c-0.1-0.2-0.3-0.4-0.5-0.5c-0.3-0.2-1-0.6-2.1-1.4c-1.2-0.7-2-1-2.7-0.8c-0.6,0.2-1.1,0.5-1.3,0.8c-0.2,0.3-0.6,0.4-1.1,0.3&#xA;&#x9;c-0.6-0.1-1.2-0.5-1.9-1.1c-0.7-0.6-1.3-1.1-1.6-1.4c-0.3-0.3-0.8-0.9-1.4-1.6c-0.6-0.7-1-1.4-1.1-1.9c-0.1-0.6,0-1,0.3-1.1&#xA;&#x9;C8.3,9,8.5,8.6,8.7,7.9c0.2-0.6-0.1-1.5-0.8-2.7C7.4,4.5,7,3.8,6.5,3.1C6.4,2.9,6.2,2.7,6,2.6c-0.2-0.1-0.4-0.1-0.6,0L4.4,3&#xA;&#x9;C3.7,3.2,3.2,3.7,2.8,4.5z M8.6,10.3C8.6,10.3,8.6,10.3,8.6,10.3C8.6,10.3,8.6,10.3,8.6,10.3C8.6,10.3,8.6,10.3,8.6,10.3z M9.7,11.5&#xA;&#x9;c0.6,0.7,1,1.2,1.3,1.5c0.3,0.3,0.8,0.8,1.5,1.3c0.6,0.5,1,0.7,1.4,0.8c0.4-0.5,1-0.8,1.8-1.1c1.1-0.3,2.3,0.1,3.7,1&#xA;&#x9;c1.1,0.7,1.8,1.2,2.1,1.4c0.5,0.3,0.8,0.6,1,1.1c0.2,0.5,0.2,0.9,0.1,1.4l0,0.1l-0.4,1c-0.4,1-1.1,1.8-2.2,2.3&#xA;&#x9;c-1,0.4-2.1,0.5-3.3,0.2c-1.1-0.3-2.3-0.7-3.4-1.3c-1.2-0.6-2.3-1.3-3.3-2.1c-1.1-0.8-2-1.6-2.8-2.3c-0.8-0.8-1.5-1.7-2.3-2.8&#xA;&#x9;c-0.8-1.1-1.5-2.2-2.1-3.3C2.1,9.6,1.7,8.4,1.4,7.3C1.1,6.1,1.2,4.9,1.6,4c0.5-1.1,1.3-1.9,2.3-2.2l1-0.4l0.1,0&#xA;&#x9;c0.5-0.1,1-0.1,1.4,0.1C7,1.6,7.3,2,7.6,2.4L9,4.5c0.9,1.4,1.3,2.7,1,3.7c-0.2,0.8-0.6,1.4-1.1,1.8C8.9,10.4,9.2,10.9,9.7,11.5z"/></svg>
