<svg version="1.1" id="Vlt-icon-message" xmlns="http://www.w3.org/2000/svg" xmlns:xlink="http://www.w3.org/1999/xlink" x="0px" y="0px" viewBox="0 0 24 24" style="enable-background:new 0 0 24 24;" xml:space="preserve"><polygon style="fill:white" points="5,7.3 5,8.6 19,8.6 19,7.3 9.9,7.3 &#x9;"/><polygon style="fill:white" points="5,11 5,12.3 13,12.3 13,11 10.1,11 &#x9;"/><path style="fill:white" d="M19.2,1.5H4.8c-2.3,0-4.1,1.8-4.1,4.1V15c0,2.3,1.8,4.1,4.1,4.1h1v2.2c0,1.2,1.5,1.8,2.3,0.9l2.9-3.1h8.2&#xA;&#x9;&#x9;c2.3,0,4.1-1.8,4.1-4.1V5.6C23.3,3.3,21.5,1.5,19.2,1.5z M19.3,17.8h-8.8l-0.4,0.3l-2.9,3.2v-3.5H4.8C3.2,17.8,2,16.5,2,15V5.6&#xA;&#x9;&#x9;c0-1.5,1.2-2.8,2.8-2.8h14.4c1.6,0,2.8,1.3,2.8,2.8l0.1,9.4C22.1,16.5,20.8,17.8,19.3,17.8z"/></svg>
